<svg width="20" height="20" viewBox="0 0 20 20" fill="none" xmlns="http://www.w3.org/2000/svg">
<path d="M9.22549 14.9998H10.8755V10.9H15.0005V9.22477H10.8755V5.00017H9.22549V9.22477H5.00089V10.9H9.22549V14.9998ZM10.0007 20.0002C8.61749 20.0002 7.32169 19.7376 6.11329 19.2124C4.90489 18.6876 3.84649 17.971 2.93809 17.0626C2.02969 16.1542 1.31309 15.0958 0.788288 13.8874C0.263088 12.679 0.000488281 11.3832 0.000488281 9.99997C0.000488281 8.61677 0.263088 7.31677 0.788288 6.09997C1.31309 4.88317 2.02969 3.82477 2.93809 2.92477C3.84649 2.02477 4.90489 1.31237 6.11329 0.787571C7.32169 0.262371 8.61749 -0.000228882 10.0007 -0.000228882C11.3839 -0.000228882 12.6839 0.262371 13.9007 0.787571C15.1175 1.31237 16.1759 2.02477 17.0759 2.92477C17.9759 3.82477 18.6883 4.88317 19.2131 6.09997C19.7383 7.31677 20.0009 8.61677 20.0009 9.99997C20.0009 11.3832 19.7383 12.679 19.2131 13.8874C18.6883 15.0958 17.9759 16.1542 17.0759 17.0626C16.1759 17.971 15.1175 18.6876 13.9007 19.2124C12.6839 19.7376 11.3839 20.0002 10.0007 20.0002ZM10.0007 18.325C12.3175 18.325 14.2841 17.5166 15.9005 15.8998C17.5173 14.2834 18.3257 12.3168 18.3257 9.99997C18.3257 7.68317 17.5215 5.71657 15.9131 4.10017C14.3047 2.48337 12.3339 1.67497 10.0007 1.67497C7.68389 1.67497 5.71729 2.47917 4.10089 4.08757C2.48409 5.69597 1.67569 7.66677 1.67569 9.99997C1.67569 12.3168 2.48409 14.2834 4.10089 15.8998C5.71729 17.5166 7.68389 18.325 10.0007 18.325Z" fill="#BBFD00"/>
</svg>
