<svg width="24" height="24" viewBox="0 0 24 24" fill="none" xmlns="http://www.w3.org/2000/svg">
<mask id="mask0_1_239" style="mask-type:alpha" maskUnits="userSpaceOnUse" x="4" y="4" width="17" height="17">
<rect x="4.80005" y="4.8" width="15.6" height="15.6" fill="#D9D9D9"/>
</mask>
<g mask="url(#mask0_1_239)">
<path d="M9.35007 19.1C8.99257 19.1 8.68664 18.9728 8.43227 18.7185C8.17747 18.4637 8.05007 18.1575 8.05007 17.8C8.05007 17.4425 8.17747 17.1364 8.43227 16.8816C8.68664 16.6272 8.99257 16.5 9.35007 16.5C9.70757 16.5 10.0135 16.6272 10.2679 16.8816C10.5227 17.1364 10.6501 17.4425 10.6501 17.8C10.6501 18.1575 10.5227 18.4637 10.2679 18.7185C10.0135 18.9728 9.70757 19.1 9.35007 19.1ZM15.8501 19.1C15.4926 19.1 15.1866 18.9728 14.9323 18.7185C14.6775 18.4637 14.5501 18.1575 14.5501 17.8C14.5501 17.4425 14.6775 17.1364 14.9323 16.8816C15.1866 16.6272 15.4926 16.5 15.8501 16.5C16.2076 16.5 16.5137 16.6272 16.7685 16.8816C17.0229 17.1364 17.1501 17.4425 17.1501 17.8C17.1501 18.1575 17.0229 18.4637 16.7685 18.7185C16.5137 18.9728 16.2076 19.1 15.8501 19.1ZM8.79757 8.70001L10.3576 11.95H14.9076L16.6951 8.70001H8.79757ZM8.18007 7.40001H17.7676C18.0167 7.40001 18.2063 7.51094 18.3363 7.73281C18.4663 7.95511 18.4717 8.18001 18.3526 8.40751L16.0451 12.5675C15.9259 12.7842 15.766 12.9521 15.5654 13.0713C15.3652 13.1904 15.1459 13.25 14.9076 13.25H10.0651L9.35007 14.55H17.1501V15.85H9.35007C8.86257 15.85 8.49424 15.6359 8.24507 15.2078C7.99591 14.7801 7.98507 14.355 8.21257 13.9325L9.09007 12.34L6.75007 7.40001H5.45007V6.10001H7.56257L8.18007 7.40001Z" fill="#BBFD00"/>
</g>
<circle cx="12" cy="12" r="11.5" stroke="#BBFD00"/>
</svg>
