<svg width="40" height="40" viewBox="0 0 40 40" fill="none" xmlns="http://www.w3.org/2000/svg">
<path fill-rule="evenodd" clip-rule="evenodd" d="M33.4007 5.01158C33.2654 4.77735 32.9676 4.6962 32.7351 4.8303C32.5029 4.96439 32.4241 5.26308 32.5593 5.49731C32.6945 5.73125 32.9924 5.8124 33.2249 5.6783C33.4571 5.54421 33.5359 5.24552 33.4007 5.01129V5.01158Z" fill="white"/>
<path fill-rule="evenodd" clip-rule="evenodd" d="M34.8389 6.99625C34.633 6.63944 34.1795 6.5157 33.8255 6.72029C33.4718 6.9246 33.3518 7.37953 33.5577 7.73634C33.7636 8.09315 34.2174 8.21688 34.5711 8.01229C34.9249 7.80799 35.0448 7.35305 34.8389 6.99625V6.99625Z" fill="white"/>
<path fill-rule="evenodd" clip-rule="evenodd" d="M36.1136 9.0758C35.8899 8.68762 35.3967 8.55353 35.0119 8.77568C34.6274 8.99782 34.4969 9.49246 34.7209 9.88035C34.9446 10.2682 35.4378 10.4026 35.8226 10.1805C36.2071 9.95833 36.3376 9.46368 36.1136 9.0758Z" fill="white"/>
<path fill-rule="evenodd" clip-rule="evenodd" d="M37.3913 11.1537C37.1483 10.7328 36.6134 10.5872 36.1959 10.8283C35.7786 11.0691 35.6371 11.6058 35.8801 12.0268C36.1228 12.4478 36.658 12.5934 37.0752 12.3522C37.4925 12.1111 37.634 11.5744 37.3913 11.1537Z" fill="white"/>
<path fill-rule="evenodd" clip-rule="evenodd" d="M38.4984 13.3306C38.2913 12.9721 37.8355 12.8478 37.4798 13.0532C37.1243 13.2587 37.0036 13.7159 37.2106 14.0747C37.4177 14.4333 37.8735 14.5576 38.2292 14.3521C38.5849 14.1467 38.7054 13.6894 38.4984 13.3309V13.3306Z" fill="white"/>
<path fill-rule="evenodd" clip-rule="evenodd" d="M39.4349 15.6054C39.3186 15.4042 39.0625 15.3343 38.8628 15.4497C38.6631 15.5651 38.5955 15.8217 38.7115 16.0229C38.8277 16.2243 39.0838 16.2939 39.2835 16.1786C39.4832 16.0632 39.5508 15.8065 39.4349 15.6054Z" fill="white"/>
<path fill-rule="evenodd" clip-rule="evenodd" d="M27.2395 0.125002C27.2371 0.120418 27.2314 0.118655 27.2268 0.121476C27.2226 0.123944 27.2208 0.12994 27.2233 0.134172C27.2261 0.138756 27.2318 0.140167 27.236 0.137698C27.2406 0.134877 27.242 0.129234 27.2392 0.125002H27.2395Z" fill="white"/>
<path fill-rule="evenodd" clip-rule="evenodd" d="M28.873 1.99499C28.7366 1.75903 28.4365 1.67702 28.2023 1.81227C27.9683 1.94751 27.8889 2.2485 28.025 2.48446C28.1614 2.72041 28.4615 2.80213 28.6958 2.66718C28.93 2.53193 29.0094 2.23095 28.873 1.99499V1.99499Z" fill="white"/>
<path fill-rule="evenodd" clip-rule="evenodd" d="M30.4556 3.89667C30.2022 3.45757 29.6437 3.30535 29.2084 3.55684C28.773 3.80833 28.6254 4.36829 28.8788 4.8074C29.1321 5.24651 29.6906 5.39873 30.126 5.14694C30.5614 4.89545 30.7092 4.33549 30.4556 3.89639V3.89667Z" fill="white"/>
<path fill-rule="evenodd" clip-rule="evenodd" d="M31.7236 5.98009C31.4544 5.51336 30.8611 5.35194 30.3984 5.61925C29.9357 5.88657 29.779 6.48135 30.0482 6.94808C30.3173 7.41452 30.9106 7.57624 31.3733 7.30892C31.836 7.0416 31.9927 6.44653 31.7236 5.98009Z" fill="white"/>
<path fill-rule="evenodd" clip-rule="evenodd" d="M32.9423 8.09191C32.6731 7.62518 32.0799 7.46375 31.6172 7.73107C31.1545 7.99839 30.9977 8.59317 31.2669 9.0599C31.5361 9.52663 32.1293 9.68806 32.592 9.42074C33.0547 9.15342 33.2115 8.55864 32.9423 8.09191Z" fill="white"/>
<path fill-rule="evenodd" clip-rule="evenodd" d="M34.1606 10.2042C33.8914 9.73771 33.2981 9.57599 32.8354 9.84331C32.3727 10.1106 32.216 10.7057 32.4852 11.1721C32.7543 11.6389 33.3476 11.8003 33.8103 11.533C34.273 11.2657 34.4297 10.6709 34.1606 10.2042Z" fill="white"/>
<path fill-rule="evenodd" clip-rule="evenodd" d="M35.3793 12.316C35.1101 11.8493 34.5169 11.6879 34.0542 11.9552C33.5915 12.2225 33.4347 12.8173 33.7039 13.284C33.9731 13.7505 34.5663 13.9122 35.029 13.6449C35.4918 13.3775 35.6485 12.7825 35.3793 12.316Z" fill="white"/>
<path fill-rule="evenodd" clip-rule="evenodd" d="M36.5981 14.4283C36.3289 13.9616 35.7356 13.8002 35.2729 14.0675C34.8102 14.3348 34.6535 14.9296 34.9227 15.3963C35.1918 15.8628 35.7851 16.0245 36.2478 15.7572C36.7105 15.4898 36.8672 14.8951 36.5981 14.4286V14.4283Z" fill="white"/>
<path fill-rule="evenodd" clip-rule="evenodd" d="M37.8163 16.5401C37.5472 16.0736 36.9539 15.9119 36.4912 16.1793C36.0285 16.4466 35.8718 17.0416 36.1409 17.5081C36.4101 17.9745 37.0034 18.1362 37.4661 17.8689C37.9288 17.6016 38.0855 17.0065 37.8163 16.5401Z" fill="white"/>
<path fill-rule="evenodd" clip-rule="evenodd" d="M39.0287 18.6559C38.7615 18.1929 38.1729 18.0327 37.7139 18.298C37.2549 18.5633 37.0994 19.1534 37.3665 19.6164C37.6337 20.0794 38.2223 20.2397 38.6813 19.9747C39.1405 19.7094 39.2958 19.1192 39.0287 18.6562V18.6559Z" fill="white"/>
<path fill-rule="evenodd" clip-rule="evenodd" d="M39.8174 21.0167C39.6885 20.7934 39.4045 20.716 39.1829 20.844C38.9614 20.9718 38.8863 21.2567 39.0152 21.48C39.1441 21.7032 39.4281 21.7804 39.6497 21.6526C39.8713 21.5248 39.9464 21.24 39.8174 21.0167Z" fill="white"/>
<path fill-rule="evenodd" clip-rule="evenodd" d="M25.6091 1.06425C25.457 0.800667 25.122 0.70945 24.8608 0.860519C24.5997 1.0113 24.5112 1.34739 24.6633 1.61068C24.8154 1.87426 25.1501 1.96548 25.4116 1.81441C25.6727 1.66363 25.7615 1.32754 25.6094 1.06396L25.6091 1.06425Z" fill="white"/>
<path fill-rule="evenodd" clip-rule="evenodd" d="M27.1923 2.96587C26.9231 2.49943 26.3299 2.33771 25.8672 2.60503C25.4045 2.87235 25.2477 3.46742 25.5169 3.93386C25.7861 4.40059 26.3793 4.56202 26.842 4.2947C27.3047 4.02738 27.4615 3.4326 27.1923 2.96587Z" fill="white"/>
<path fill-rule="evenodd" clip-rule="evenodd" d="M28.4111 5.07775C28.1419 4.61102 27.5486 4.44959 27.0859 4.71691C26.6232 4.98423 26.4665 5.57901 26.7357 6.04574C27.0048 6.51247 27.5981 6.67389 28.0608 6.40658C28.5235 6.13926 28.6802 5.54448 28.4111 5.07775Z" fill="white"/>
<path fill-rule="evenodd" clip-rule="evenodd" d="M29.6298 7.19005C29.3606 6.72332 28.7674 6.5619 28.3047 6.82922C27.842 7.09653 27.6852 7.69131 27.9544 8.15804C28.2236 8.62477 28.8168 8.7862 29.2795 8.51888C29.7422 8.25156 29.899 7.65678 29.6298 7.19005Z" fill="white"/>
<path fill-rule="evenodd" clip-rule="evenodd" d="M30.8481 9.30181C30.5789 8.83537 29.9856 8.67365 29.5229 8.94097C29.0602 9.20829 28.9035 9.80336 29.1727 10.2698C29.4418 10.7365 30.0351 10.8982 30.4978 10.6309C30.9605 10.3636 31.1172 9.76854 30.8481 9.3021V9.30181Z" fill="white"/>
<path fill-rule="evenodd" clip-rule="evenodd" d="M32.0663 11.4142C31.7972 10.9474 31.2039 10.786 30.7412 11.0533C30.2785 11.3207 30.1218 11.9154 30.3909 12.3822C30.6601 12.8489 31.2534 13.0103 31.7161 12.743C32.1788 12.4757 32.3355 11.8809 32.0663 11.4142Z" fill="white"/>
<path fill-rule="evenodd" clip-rule="evenodd" d="M33.2856 13.526C33.0164 13.0593 32.4231 12.8978 31.9604 13.1652C31.4977 13.4325 31.341 14.0273 31.6102 14.494C31.8793 14.9604 32.4726 15.1221 32.9353 14.8548C33.398 14.5875 33.5547 13.9924 33.2856 13.526Z" fill="white"/>
<path fill-rule="evenodd" clip-rule="evenodd" d="M34.5038 15.6378C34.2347 15.1711 33.6414 15.0097 33.1787 15.277C32.716 15.5443 32.5593 16.1391 32.8284 16.6058C33.0976 17.0722 33.6909 17.234 34.1536 16.9666C34.6163 16.6993 34.773 16.1045 34.5038 15.6381V15.6378Z" fill="white"/>
<path fill-rule="evenodd" clip-rule="evenodd" d="M35.7226 17.7496C35.4534 17.2831 34.8601 17.1214 34.3974 17.3887C33.9347 17.656 33.778 18.2511 34.0472 18.7176C34.3163 19.1843 34.9096 19.3457 35.3723 19.0784C35.835 18.8111 35.9917 18.2163 35.7226 17.7496Z" fill="white"/>
<path fill-rule="evenodd" clip-rule="evenodd" d="M36.9413 19.8619C36.6722 19.3952 36.0789 19.2338 35.6162 19.5011C35.1535 19.7684 34.9968 20.3632 35.2659 20.8299C35.5351 21.2964 36.1284 21.4581 36.5911 21.1908C37.0538 20.9234 37.2105 20.3284 36.9413 19.8619Z" fill="white"/>
<path fill-rule="evenodd" clip-rule="evenodd" d="M38.1596 21.9737C37.8904 21.507 37.2972 21.3456 36.8345 21.6129C36.3717 21.8802 36.215 22.475 36.4842 22.9417C36.7534 23.4085 37.3466 23.5699 37.8093 23.3026C38.272 23.0353 38.4288 22.4405 38.1596 21.9737Z" fill="white"/>
<path fill-rule="evenodd" clip-rule="evenodd" d="M39.0401 24.2811C38.8796 24.0032 38.5259 23.9068 38.2501 24.0662C37.9744 24.2253 37.8809 24.5801 38.0414 24.8581C38.2018 25.1363 38.5556 25.2324 38.8313 25.0733C39.1071 24.9139 39.2006 24.5594 39.0401 24.2811Z" fill="white"/>
<path fill-rule="evenodd" clip-rule="evenodd" d="M39.7722 26.6771C39.7686 26.6708 39.7607 26.6685 39.7545 26.6721C39.7482 26.6757 39.7462 26.6836 39.7499 26.6899C39.7535 26.6961 39.7614 26.6984 39.7676 26.6948C39.7739 26.6912 39.7758 26.683 39.7722 26.6771Z" fill="white"/>
<path fill-rule="evenodd" clip-rule="evenodd" d="M22.1989 0.219033C22.0783 0.0104121 21.813 -0.0618137 21.6061 0.0576035C21.3992 0.177021 21.329 0.442904 21.4496 0.651812C21.5702 0.860432 21.8355 0.932658 22.0424 0.813241C22.2493 0.693824 22.3195 0.427653 22.1989 0.219033V0.219033Z" fill="white"/>
<path fill-rule="evenodd" clip-rule="evenodd" d="M23.8803 2.06353C23.6111 1.59708 23.0179 1.43537 22.5552 1.70269C22.0924 1.97001 21.9357 2.56507 22.2049 3.03152C22.4741 3.49825 23.0673 3.65967 23.53 3.39235C23.9927 3.12503 24.1495 2.53026 23.8803 2.06353V2.06353Z" fill="white"/>
<path fill-rule="evenodd" clip-rule="evenodd" d="M25.0985 4.17589C24.8294 3.70916 24.2361 3.54774 23.7734 3.81506C23.3107 4.08237 23.154 4.67715 23.4232 5.14388C23.6923 5.61061 24.2856 5.77204 24.7483 5.50472C25.211 5.2374 25.3677 4.64262 25.0985 4.17589Z" fill="white"/>
<path fill-rule="evenodd" clip-rule="evenodd" d="M26.3168 6.28771C26.0476 5.82098 25.4544 5.65955 24.9917 5.92687C24.529 6.19419 24.3722 6.78897 24.6414 7.2557C24.9106 7.72243 25.5038 7.88386 25.9665 7.61654C26.4293 7.34922 26.586 6.75444 26.3168 6.28771V6.28771Z" fill="white"/>
<path fill-rule="evenodd" clip-rule="evenodd" d="M27.5356 8.39953C27.2664 7.9328 26.6731 7.77137 26.2104 8.03869C25.7477 8.30601 25.591 8.90079 25.8602 9.36751C26.1293 9.83396 26.7226 9.99567 27.1853 9.72835C27.648 9.46103 27.8047 8.86597 27.5356 8.39953Z" fill="white"/>
<path fill-rule="evenodd" clip-rule="evenodd" d="M28.7538 10.5118C28.4847 10.0451 27.8914 9.88367 27.4287 10.151C26.966 10.4183 26.8093 11.0131 27.0784 11.4798C27.3476 11.9465 27.9409 12.108 28.4036 11.8407C28.8663 11.5733 29.023 10.9786 28.7538 10.5118Z" fill="white"/>
<path fill-rule="evenodd" clip-rule="evenodd" d="M29.9731 12.6236C29.7039 12.1571 29.1106 11.9954 28.6479 12.2627C28.1852 12.5301 28.0285 13.1251 28.2977 13.5916C28.5668 14.0583 29.1601 14.2197 29.6228 13.9524C30.0855 13.6851 30.2422 13.0903 29.9731 12.6236Z" fill="white"/>
<path fill-rule="evenodd" clip-rule="evenodd" d="M31.1913 14.7355C30.9222 14.2687 30.3289 14.1073 29.8662 14.3746C29.4035 14.6419 29.2468 15.2367 29.5159 15.7035C29.7851 16.1699 30.3784 16.3316 30.8411 16.0643C31.3038 15.797 31.4605 15.2019 31.1913 14.7355Z" fill="white"/>
<path fill-rule="evenodd" clip-rule="evenodd" d="M32.4101 16.8478C32.1409 16.381 31.5476 16.2196 31.0849 16.4869C30.6222 16.7542 30.4655 17.349 30.7347 17.8158C31.0038 18.2822 31.5971 18.4439 32.0598 18.1766C32.5225 17.9093 32.6792 17.3145 32.4101 16.8481V16.8478Z" fill="white"/>
<path fill-rule="evenodd" clip-rule="evenodd" d="M33.6283 18.9595C33.3592 18.4931 32.7659 18.3314 32.3032 18.5987C31.8405 18.866 31.6838 19.4611 31.9529 19.9275C32.2221 20.394 32.8154 20.5557 33.2781 20.2883C33.7408 20.021 33.8975 19.426 33.6283 18.9595Z" fill="white"/>
<path fill-rule="evenodd" clip-rule="evenodd" d="M34.8471 21.0719C34.5779 20.6052 33.9847 20.4437 33.522 20.7111C33.0592 20.9784 32.9025 21.5731 33.1717 22.0399C33.4409 22.5066 34.0341 22.668 34.4968 22.4007C34.9595 22.1334 35.1163 21.5386 34.8471 21.0719Z" fill="white"/>
<path fill-rule="evenodd" clip-rule="evenodd" d="M36.0658 23.1836C35.7967 22.7172 35.2034 22.5555 34.7407 22.8228C34.278 23.0901 34.1213 23.6852 34.3904 24.1516C34.6596 24.6184 35.2529 24.7801 35.7156 24.5128C36.1783 24.2454 36.335 23.6504 36.0658 23.1839V23.1836Z" fill="white"/>
<path fill-rule="evenodd" clip-rule="evenodd" d="M37.2846 25.2955C37.0154 24.8288 36.4222 24.6674 35.9595 24.9347C35.4967 25.202 35.34 25.7968 35.6092 26.2635C35.8784 26.7302 36.4716 26.8917 36.9343 26.6244C37.397 26.357 37.5538 25.7623 37.2846 25.2955Z" fill="white"/>
<path fill-rule="evenodd" clip-rule="evenodd" d="M38.1061 27.6373C37.9645 27.3921 37.6526 27.3072 37.4091 27.4476C37.166 27.5881 37.0834 27.9008 37.225 28.146C37.3665 28.3912 37.6785 28.4761 37.9219 28.3356C38.1651 28.1952 38.2476 27.8824 38.1061 27.6373Z" fill="white"/>
<path fill-rule="evenodd" clip-rule="evenodd" d="M20.5544 1.16875C20.2895 0.709504 19.7055 0.550379 19.2502 0.813382C18.7947 1.07639 18.6406 1.66196 18.9054 2.12149C19.1703 2.58074 19.7543 2.73987 20.2099 2.47657C20.6651 2.21357 20.8195 1.628 20.5544 1.16875V1.16875Z" fill="white"/>
<path fill-rule="evenodd" clip-rule="evenodd" d="M21.7865 3.27355C21.5174 2.80682 20.9241 2.64539 20.4614 2.91271C19.9987 3.18003 19.842 3.77481 20.1111 4.24154C20.3803 4.70827 20.9736 4.8697 21.4363 4.60238C21.899 4.33506 22.0557 3.74028 21.7865 3.27355V3.27355Z" fill="white"/>
<path fill-rule="evenodd" clip-rule="evenodd" d="M23.0053 5.3853C22.7361 4.91886 22.1429 4.75715 21.6802 5.02447C21.2174 5.29179 21.0607 5.88685 21.3299 6.35329C21.5991 6.82002 22.1923 6.98145 22.655 6.71413C23.1177 6.44681 23.2745 5.85203 23.0053 5.3853Z" fill="white"/>
<path fill-rule="evenodd" clip-rule="evenodd" d="M24.2236 7.49767C23.9544 7.03094 23.3611 6.86951 22.8984 7.13683C22.4357 7.40415 22.279 7.99893 22.5482 8.46566C22.8173 8.93239 23.4106 9.09382 23.8733 8.8265C24.336 8.55918 24.4927 7.9644 24.2236 7.49767Z" fill="white"/>
<path fill-rule="evenodd" clip-rule="evenodd" d="M25.4413 9.60949C25.1722 9.14276 24.5789 8.98133 24.1162 9.24865C23.6535 9.51597 23.4968 10.1107 23.7659 10.5775C24.0351 11.0442 24.6284 11.2056 25.0911 10.9383C25.5538 10.671 25.7105 10.0762 25.4413 9.60949Z" fill="white"/>
<path fill-rule="evenodd" clip-rule="evenodd" d="M26.6601 11.7212C26.3909 11.2548 25.7976 11.0931 25.3349 11.3604C24.8722 11.6277 24.7155 12.2228 24.9847 12.6892C25.2538 13.156 25.8471 13.3177 26.3098 13.0504C26.7725 12.783 26.9292 12.188 26.6601 11.7215V11.7212Z" fill="white"/>
<path fill-rule="evenodd" clip-rule="evenodd" d="M27.8788 13.8331C27.6097 13.3664 27.0164 13.205 26.5537 13.4723C26.091 13.7396 25.9343 14.3344 26.2034 14.8011C26.4726 15.2678 27.0659 15.4293 27.5286 15.1619C27.9913 14.8946 28.148 14.2998 27.8788 13.8331V13.8331Z" fill="white"/>
<path fill-rule="evenodd" clip-rule="evenodd" d="M29.0976 15.9454C28.8284 15.4787 28.2351 15.3173 27.7724 15.5846C27.3097 15.8519 27.153 16.4467 27.4222 16.9134C27.6913 17.3799 28.2846 17.5416 28.7473 17.2743C29.21 17.0069 29.3667 16.4119 29.0976 15.9454Z" fill="white"/>
<path fill-rule="evenodd" clip-rule="evenodd" d="M30.3158 18.0572C30.0467 17.5905 29.4534 17.4291 28.9907 17.6964C28.528 17.9637 28.3713 18.5585 28.6404 19.0252C28.9096 19.4917 29.5029 19.6534 29.9656 19.3861C30.4283 19.1187 30.585 18.524 30.3158 18.0575V18.0572Z" fill="white"/>
<path fill-rule="evenodd" clip-rule="evenodd" d="M31.5346 20.1695C31.2654 19.703 30.6722 19.5413 30.2094 19.8086C29.7467 20.076 29.59 20.671 29.8592 21.1375C30.1284 21.6042 30.7216 21.7656 31.1843 21.4983C31.647 21.231 31.8038 20.6362 31.5346 20.1695Z" fill="white"/>
<path fill-rule="evenodd" clip-rule="evenodd" d="M32.7533 22.2814C32.4842 21.8146 31.8909 21.6532 31.4282 21.9205C30.9655 22.1878 30.8088 22.7826 31.0779 23.2494C31.3471 23.7158 31.9404 23.8775 32.4031 23.6102C32.8658 23.3429 33.0225 22.7478 32.7533 22.2814Z" fill="white"/>
<path fill-rule="evenodd" clip-rule="evenodd" d="M33.9721 24.3937C33.7029 23.9269 33.1097 23.7655 32.6469 24.0328C32.1842 24.3001 32.0275 24.8949 32.2967 25.3617C32.5659 25.8284 33.1591 25.9898 33.6218 25.7225C34.0845 25.4552 34.2413 24.8604 33.9721 24.3937Z" fill="white"/>
<path fill-rule="evenodd" clip-rule="evenodd" d="M35.1904 26.5054C34.9212 26.039 34.3279 25.8773 33.8652 26.1446C33.4025 26.4119 33.2458 27.007 33.5149 27.4734C33.7841 27.9401 34.3774 28.1016 34.8401 27.8342C35.3028 27.5669 35.4595 26.9722 35.1904 26.5054Z" fill="white"/>
<path fill-rule="evenodd" clip-rule="evenodd" d="M36.3664 28.6421C36.1107 28.1993 35.5479 28.0459 35.1088 28.2997C34.6697 28.5532 34.5207 29.1178 34.7764 29.5606C35.032 30.0035 35.5948 30.1569 36.0342 29.9031C36.4731 29.6496 36.622 29.085 36.3664 28.6421V28.6421Z" fill="white"/>
<path fill-rule="evenodd" clip-rule="evenodd" d="M16.7527 0.549483C16.645 0.362731 16.4074 0.298275 16.2223 0.405031C16.037 0.512075 15.9743 0.750046 16.0819 0.936509C16.1898 1.12326 16.4272 1.18772 16.6125 1.08096C16.7975 0.974205 16.8603 0.736234 16.7527 0.549483V0.549483Z" fill="white"/>
<path fill-rule="evenodd" clip-rule="evenodd" d="M18.4736 2.37093C18.2044 1.9042 17.6111 1.74249 17.1484 2.00981C16.6857 2.27713 16.529 2.8719 16.7982 3.33863C17.0673 3.80536 17.6606 3.96679 18.1233 3.69947C18.586 3.43244 18.7427 2.83738 18.4736 2.37093V2.37093Z" fill="white"/>
<path fill-rule="evenodd" clip-rule="evenodd" d="M19.6891 4.48512C19.4211 4.0204 18.8298 3.85926 18.3691 4.12543C17.9081 4.3916 17.7523 4.98437 18.0203 5.44908C18.2883 5.9138 18.8793 6.07494 19.3402 5.80877C19.8009 5.5426 19.9571 4.95012 19.6891 4.48512Z" fill="white"/>
<path fill-rule="evenodd" clip-rule="evenodd" d="M20.8782 6.61414C20.6197 6.16583 20.0494 6.01073 19.6051 6.26741C19.1606 6.52437 19.0099 7.09584 19.2687 7.54415C19.5275 7.99246 20.0975 8.14756 20.5421 7.89089C20.9864 7.63422 21.137 7.06274 20.8785 6.61414H20.8782Z" fill="white"/>
<path fill-rule="evenodd" clip-rule="evenodd" d="M22.1298 8.70723C21.8606 8.2405 21.2674 8.07907 20.8047 8.34611C20.342 8.61342 20.1852 9.2082 20.4544 9.67493C20.7236 10.1417 21.3168 10.3031 21.7795 10.0358C22.2422 9.76874 22.399 9.17367 22.1295 8.70723H22.1298Z" fill="white"/>
<path fill-rule="evenodd" clip-rule="evenodd" d="M23.3481 10.8194C23.0789 10.3527 22.4856 10.1913 22.0229 10.4586C21.5602 10.7259 21.4035 11.3207 21.6727 11.7874C21.9418 12.2539 22.5351 12.4156 22.9978 12.1483C23.4605 11.881 23.6172 11.2862 23.3481 10.8194Z" fill="white"/>
<path fill-rule="evenodd" clip-rule="evenodd" d="M24.5663 12.9312C24.2972 12.4648 23.7039 12.303 23.2412 12.5704C22.7785 12.8377 22.6218 13.4325 22.8909 13.8992C23.1601 14.3659 23.7534 14.5273 24.2161 14.26C24.6788 13.993 24.8355 13.3979 24.566 12.9312H24.5663Z" fill="white"/>
<path fill-rule="evenodd" clip-rule="evenodd" d="M25.7846 15.0432C25.5154 14.5764 24.9222 14.415 24.4595 14.682C23.9967 14.9494 23.84 15.5444 24.1092 16.0109C24.3784 16.4776 24.9716 16.639 25.4343 16.3717C25.897 16.1047 26.0538 15.5096 25.7846 15.0432Z" fill="white"/>
<path fill-rule="evenodd" clip-rule="evenodd" d="M27.0028 17.1549C26.7337 16.6882 26.1404 16.5267 25.6777 16.7941C25.215 17.0614 25.0583 17.6562 25.3274 18.1229C25.5966 18.5893 26.1899 18.751 26.6526 18.4837C27.1153 18.2164 27.2717 17.6213 27.0026 17.1549H27.0028Z" fill="white"/>
<path fill-rule="evenodd" clip-rule="evenodd" d="M28.2221 19.2673C27.9529 18.8006 27.3597 18.6391 26.897 18.9062C26.4342 19.1735 26.2775 19.7683 26.5467 20.235C26.8159 20.7014 27.4091 20.8631 27.8718 20.5958C28.3345 20.3288 28.4913 19.7337 28.2221 19.2673Z" fill="white"/>
<path fill-rule="evenodd" clip-rule="evenodd" d="M29.4403 21.379C29.1712 20.9125 28.5779 20.7508 28.1152 21.0181C27.6525 21.2854 27.4958 21.8805 27.7649 22.3469C28.0341 22.8134 28.6274 22.9751 29.0901 22.7078C29.5528 22.4405 29.7095 21.8457 29.4403 21.379Z" fill="white"/>
<path fill-rule="evenodd" clip-rule="evenodd" d="M30.6591 23.4909C30.3899 23.0242 29.7967 22.8628 29.334 23.1298C28.8713 23.3971 28.7145 23.9919 28.9837 24.4586C29.2529 24.9254 29.8461 25.0868 30.3088 24.8195C30.7715 24.5524 30.9283 23.9574 30.6588 23.4909H30.6591Z" fill="white"/>
<path fill-rule="evenodd" clip-rule="evenodd" d="M31.8774 25.6032C31.6082 25.1365 31.0149 24.9751 30.5522 25.2421C30.0895 25.5094 29.9328 26.1045 30.202 26.5709C30.4711 27.0377 31.0644 27.1994 31.5271 26.9321C31.9898 26.6647 32.1465 26.07 31.8774 25.6032Z" fill="white"/>
<path fill-rule="evenodd" clip-rule="evenodd" d="M33.0961 27.7149C32.8269 27.2485 32.2337 27.0867 31.771 27.3541C31.3083 27.6214 31.1515 28.2162 31.4207 28.6829C31.6899 29.1496 32.2831 29.311 32.7458 29.0437C33.2086 28.7764 33.3653 28.1816 33.0958 27.7149H33.0961Z" fill="white"/>
<path fill-rule="evenodd" clip-rule="evenodd" d="M34.3149 29.8273C34.0457 29.3606 33.4524 29.1992 32.9897 29.4662C32.527 29.7335 32.3703 30.3283 32.6395 30.7951C32.9086 31.2618 33.5019 31.4232 33.9646 31.1559C34.4273 30.8889 34.584 30.2938 34.3149 29.8273Z" fill="white"/>
<path fill-rule="evenodd" clip-rule="evenodd" d="M35.1235 32.176C34.9862 31.938 34.6835 31.8557 34.4475 31.9921C34.2113 32.1285 34.1316 32.4315 34.2688 32.6695C34.4061 32.9075 34.7088 32.9898 34.9448 32.8534C35.1807 32.7173 35.2607 32.414 35.1235 32.176Z" fill="white"/>
<path fill-rule="evenodd" clip-rule="evenodd" d="M14.9309 1.60155C14.7357 1.26287 14.3052 1.14575 13.9696 1.3397C13.634 1.53364 13.5204 1.96527 13.7156 2.30366C13.9109 2.64205 14.3414 2.75945 14.677 2.56551C15.0126 2.37157 15.1265 1.93994 14.9309 1.60155Z" fill="white"/>
<path fill-rule="evenodd" clip-rule="evenodd" d="M16.3797 3.58068C16.1106 3.11395 15.5173 2.95252 15.0546 3.21984C14.5922 3.48687 14.4352 4.08194 14.7043 4.54867C14.9735 5.0154 15.5671 5.17682 16.0295 4.90951C16.4922 4.64219 16.6489 4.04741 16.3797 3.58068V3.58068Z" fill="white"/>
<path fill-rule="evenodd" clip-rule="evenodd" d="M17.309 5.86024C17.1327 5.55465 16.7442 5.44905 16.4414 5.624C16.1386 5.79895 16.0359 6.18856 16.2122 6.49386C16.3885 6.79917 16.777 6.90506 17.0798 6.73011C17.3826 6.55515 17.4853 6.16554 17.309 5.86024Z" fill="white"/>
<path fill-rule="evenodd" clip-rule="evenodd" d="M19.7206 10.0988C19.5523 9.80763 19.1819 9.70721 18.8929 9.8741C18.6045 10.041 18.5064 10.4122 18.6744 10.7034C18.8426 10.9949 19.213 11.0956 19.5014 10.9287C19.7901 10.7618 19.8885 10.3903 19.7203 10.0988H19.7206Z" fill="white"/>
<path fill-rule="evenodd" clip-rule="evenodd" d="M21.0805 12.1293C20.8672 11.7599 20.3973 11.6315 20.0303 11.8433C19.6637 12.0551 19.5394 12.5264 19.7528 12.8962C19.9662 13.2657 20.4361 13.394 20.8027 13.1822C21.1694 12.9704 21.2936 12.4991 21.0802 12.1293H21.0805Z" fill="white"/>
<path fill-rule="evenodd" clip-rule="evenodd" d="M22.4726 14.1412C22.2034 13.6745 21.6101 13.5131 21.1474 13.7804C20.6847 14.0474 20.528 14.6425 20.7972 15.1092C21.0663 15.5759 21.6599 15.7374 22.1223 15.4701C22.585 15.2027 22.7417 14.608 22.4726 14.1412V14.1412Z" fill="white"/>
<path fill-rule="evenodd" clip-rule="evenodd" d="M23.6913 16.2535C23.4221 15.787 22.8288 15.6253 22.3661 15.8926C21.9037 16.1599 21.7467 16.755 22.0159 17.2215C22.285 17.6882 22.8786 17.8496 23.341 17.5823C23.8037 17.315 23.9604 16.7202 23.6913 16.2535Z" fill="white"/>
<path fill-rule="evenodd" clip-rule="evenodd" d="M24.9091 18.3649C24.6399 17.8981 24.0467 17.7367 23.584 18.004C23.1213 18.2711 22.9645 18.8661 23.2337 19.3328C23.5029 19.7993 24.0964 19.961 24.5588 19.6937C25.0215 19.4264 25.1783 18.8313 24.9091 18.3649Z" fill="white"/>
<path fill-rule="evenodd" clip-rule="evenodd" d="M26.1278 20.4767C25.8586 20.0099 25.2654 19.8485 24.8026 20.1158C24.3402 20.3832 24.1832 20.9779 24.4524 21.4447C24.7216 21.9111 25.3148 22.0728 25.7775 21.8055C26.2402 21.5382 26.397 20.9434 26.1278 20.477V20.4767Z" fill="white"/>
<path fill-rule="evenodd" clip-rule="evenodd" d="M27.1035 22.729C26.9125 22.3978 26.4912 22.2832 26.1628 22.4729C25.8344 22.6625 25.7231 23.0846 25.9144 23.4158C26.1056 23.747 26.5266 23.8618 26.855 23.6722C27.1834 23.4826 27.2947 23.0602 27.1035 22.729Z" fill="white"/>
<path fill-rule="evenodd" clip-rule="evenodd" d="M28.2523 24.8815C28.0838 24.5891 27.7123 24.4881 27.4224 24.6556C27.1328 24.8228 27.0345 25.1954 27.203 25.4877C27.3718 25.7801 27.7433 25.8811 28.0329 25.7136C28.3231 25.5464 28.4211 25.1738 28.2526 24.8815H28.2523Z" fill="white"/>
<path fill-rule="evenodd" clip-rule="evenodd" d="M29.506 26.973C29.3262 26.6614 28.9297 26.5535 28.6202 26.7325C28.3111 26.9111 28.2064 27.3085 28.3864 27.6202C28.5662 27.9321 28.9627 28.0403 29.2716 27.8616C29.581 27.6829 29.6863 27.2849 29.506 26.973Z" fill="white"/>
<path fill-rule="evenodd" clip-rule="evenodd" d="M30.7065 29.0956C30.5322 28.7938 30.1483 28.6893 29.8489 28.8623C29.5496 29.0352 29.4481 29.4202 29.6223 29.7221C29.7966 30.0239 30.1805 30.1287 30.4799 29.9557C30.7792 29.7828 30.8808 29.3978 30.7065 29.0959V29.0956Z" fill="white"/>
<path fill-rule="evenodd" clip-rule="evenodd" d="M32.221 31.0367C31.9519 30.57 31.3586 30.4086 30.8959 30.6759C30.4335 30.9432 30.2765 31.538 30.5456 32.0047C30.8148 32.4715 31.4084 32.6329 31.8708 32.3656C32.3335 32.0982 32.4902 31.5035 32.221 31.0367Z" fill="white"/>
<path fill-rule="evenodd" clip-rule="evenodd" d="M33.2422 33.2628C33.0363 32.906 32.5828 32.7823 32.2288 32.9869C31.8751 33.1912 31.7552 33.6461 31.9611 34.0029C32.167 34.3598 32.6205 34.4832 32.9745 34.2789C33.3282 34.0746 33.4481 33.6197 33.2422 33.2628Z" fill="white"/>
<path fill-rule="evenodd" clip-rule="evenodd" d="M12.9617 2.73942C12.7262 2.33139 12.2074 2.1901 11.8028 2.42376C11.3982 2.65741 11.261 3.17766 11.4965 3.58569C11.7321 3.99372 12.2508 4.135 12.6555 3.90135C13.0601 3.6677 13.1972 3.14745 12.9617 2.73942V2.73942Z" fill="white"/>
<path fill-rule="evenodd" clip-rule="evenodd" d="M14.2856 4.79085C14.0164 4.32413 13.4231 4.16241 12.9604 4.42973C12.4977 4.69705 12.341 5.29211 12.6102 5.75856C12.8793 6.225 13.4726 6.38671 13.9353 6.11939C14.398 5.85207 14.5547 5.25701 14.2856 4.79057V4.79085Z" fill="white"/>
<path fill-rule="evenodd" clip-rule="evenodd" d="M15.1155 7.12735C14.9714 6.87758 14.6534 6.79125 14.4057 6.93427C14.1579 7.07728 14.0739 7.39582 14.2178 7.64559C14.3622 7.89565 14.6799 7.98197 14.9276 7.83867C15.1754 7.69566 15.2594 7.37712 15.1152 7.12735H15.1155Z" fill="white"/>
<path fill-rule="evenodd" clip-rule="evenodd" d="M20.3328 15.3775C20.0783 14.9364 19.5178 14.7839 19.0804 15.0365C18.6433 15.2891 18.4949 15.8514 18.7494 16.2922C19.0039 16.7331 19.5647 16.8859 20.0018 16.6335C20.4392 16.3809 20.5873 15.8186 20.3328 15.3775Z" fill="white"/>
<path fill-rule="evenodd" clip-rule="evenodd" d="M21.5976 17.4635C21.3284 16.9968 20.7351 16.8353 20.2724 17.1027C19.8097 17.37 19.653 17.9648 19.9222 18.4315C20.1913 18.8982 20.7846 19.0596 21.2473 18.7923C21.71 18.525 21.8667 17.9302 21.5976 17.4635Z" fill="white"/>
<path fill-rule="evenodd" clip-rule="evenodd" d="M22.8158 19.5753C22.5467 19.1086 21.9534 18.9472 21.4907 19.2145C21.028 19.4818 20.8713 20.0766 21.1404 20.5433C21.4096 21.0097 22.0029 21.1715 22.4656 20.9041C22.9283 20.6368 23.085 20.0417 22.8158 19.5753Z" fill="white"/>
<path fill-rule="evenodd" clip-rule="evenodd" d="M24.0341 21.6866C23.7649 21.2199 23.1717 21.0585 22.709 21.3258C22.2463 21.5931 22.0895 22.1879 22.3587 22.6546C22.6279 23.1211 23.2211 23.2828 23.6838 23.0155C24.1465 22.7481 24.3033 22.1534 24.0341 21.6869V21.6866Z" fill="white"/>
<path fill-rule="evenodd" clip-rule="evenodd" d="M28.4354 30.4082C28.3183 30.2054 28.0604 30.1352 27.859 30.2514C27.6579 30.3677 27.5897 30.6264 27.7065 30.8289C27.8236 31.0318 28.0817 31.102 28.2829 30.9858C28.484 30.8695 28.5522 30.6111 28.4351 30.4082H28.4354Z" fill="white"/>
<path fill-rule="evenodd" clip-rule="evenodd" d="M30.1269 32.2467C29.8577 31.78 29.2644 31.6185 28.8017 31.8859C28.339 32.1532 28.1823 32.748 28.4515 33.2147C28.7206 33.6814 29.3139 33.8428 29.7766 33.5755C30.2393 33.3082 30.396 32.7134 30.1269 32.2467Z" fill="white"/>
<path fill-rule="evenodd" clip-rule="evenodd" d="M31.2075 34.4386C30.9826 34.0487 30.4872 33.9137 30.1007 34.137C29.7144 34.3603 29.5833 34.8573 29.8082 35.2469C30.0331 35.6368 30.5286 35.7717 30.9151 35.5484C31.3016 35.3252 31.4324 34.8282 31.2075 34.4386Z" fill="white"/>
<path fill-rule="evenodd" clip-rule="evenodd" d="M10.815 3.97963C10.5965 3.60095 10.1148 3.46974 9.7392 3.6867C9.36363 3.90367 9.23653 4.38651 9.45508 4.76548C9.67364 5.14415 10.1553 5.27537 10.5309 5.0584C10.9065 4.84144 11.0336 4.3586 10.815 3.97963V3.97963Z" fill="white"/>
<path fill-rule="evenodd" clip-rule="evenodd" d="M12.1913 6.0006C11.9222 5.53387 11.3289 5.37244 10.8662 5.63976C10.4035 5.90708 10.2468 6.50186 10.5159 6.96859C10.7851 7.43532 11.3784 7.59675 11.8411 7.32943C12.3038 7.06211 12.4605 6.46733 12.1913 6.0006Z" fill="white"/>
<path fill-rule="evenodd" clip-rule="evenodd" d="M13.1208 8.2798C12.9445 7.97421 12.556 7.86832 12.2529 8.04356C11.9501 8.21851 11.8474 8.60812 12.0237 8.91371C12.2 9.2193 12.5885 9.32519 12.8916 9.14996C13.1944 8.975 13.2974 8.58539 13.1208 8.2798Z" fill="white"/>
<path fill-rule="evenodd" clip-rule="evenodd" d="M18.0313 16.7072C17.8435 16.3815 17.4294 16.2687 17.1064 16.4552C16.7835 16.6416 16.6739 17.0571 16.862 17.3826C17.0498 17.7083 17.4642 17.8211 17.7871 17.6347C18.1101 17.4479 18.2193 17.0327 18.0316 16.7072H18.0313Z" fill="white"/>
<path fill-rule="evenodd" clip-rule="evenodd" d="M19.4244 18.7188C19.1805 18.2961 18.643 18.1496 18.2241 18.3916C17.8051 18.6336 17.663 19.1726 17.9069 19.5953C18.1507 20.018 18.6882 20.1644 19.1072 19.9222C19.5265 19.6802 19.6682 19.1412 19.4244 18.7185V18.7188Z" fill="white"/>
<path fill-rule="evenodd" clip-rule="evenodd" d="M20.7021 20.7968C20.4392 20.341 19.8598 20.1833 19.408 20.4443C18.9562 20.7053 18.8032 21.2863 19.0661 21.742C19.3289 22.1976 19.9084 22.3555 20.3601 22.0945C20.8119 21.8336 20.9649 21.2526 20.7021 20.7971V20.7968Z" fill="white"/>
<path fill-rule="evenodd" clip-rule="evenodd" d="M21.7658 22.9971C21.5524 22.6273 21.0825 22.4993 20.7161 22.7111C20.3495 22.9228 20.2255 23.3939 20.4389 23.7637C20.6523 24.1331 21.1222 24.2612 21.4886 24.0497C21.8549 23.8379 21.9792 23.3666 21.7661 22.9971H21.7658Z" fill="white"/>
<path fill-rule="evenodd" clip-rule="evenodd" d="M26.495 31.5288C26.3285 31.2399 25.961 31.14 25.6749 31.3055C25.3884 31.4709 25.2912 31.8392 25.458 32.1278C25.6248 32.4167 25.9921 32.5169 26.2785 32.3511C26.5649 32.1857 26.6621 31.8177 26.4953 31.5288H26.495Z" fill="white"/>
<path fill-rule="evenodd" clip-rule="evenodd" d="M28.0326 33.4562C27.7635 32.9894 27.1702 32.828 26.7075 33.0953C26.2448 33.3626 26.0881 33.9574 26.3572 34.4242C26.6264 34.8909 27.2197 35.0523 27.6824 34.785C28.1451 34.5177 28.3018 33.9229 28.0326 33.4562Z" fill="white"/>
<path fill-rule="evenodd" clip-rule="evenodd" d="M29.1726 35.6142C28.9288 35.1915 28.3913 35.045 27.9723 35.2873C27.553 35.5293 27.4109 36.0683 27.6551 36.491C27.899 36.9137 28.4364 37.0601 28.8557 36.8181C29.2747 36.5761 29.4168 36.0372 29.1729 35.6145L29.1726 35.6142Z" fill="white"/>
<path fill-rule="evenodd" clip-rule="evenodd" d="M8.66836 5.21936C8.46677 4.87003 8.02218 4.74889 7.67594 4.94916C7.32942 5.14943 7.2118 5.59487 7.41368 5.94449C7.61527 6.2941 8.05985 6.41496 8.40638 6.21497C8.7529 6.0147 8.87023 5.56926 8.66865 5.21965L8.66836 5.21936Z" fill="white"/>
<path fill-rule="evenodd" clip-rule="evenodd" d="M10.0976 7.21029C9.82841 6.74356 9.23514 6.58184 8.77244 6.84916C8.30973 7.11648 8.15301 7.71155 8.42218 8.17799C8.69134 8.64443 9.28461 8.80615 9.74731 8.53883C10.21 8.27151 10.3667 7.67644 10.0976 7.21V7.21029Z" fill="white"/>
<path fill-rule="evenodd" clip-rule="evenodd" d="M11.2995 9.33223C11.0355 8.87471 10.4538 8.71645 10.0003 8.97859C9.54678 9.24044 9.39293 9.82371 9.65692 10.2812C9.92092 10.7388 10.5024 10.8973 10.9562 10.6352C11.4097 10.3733 11.5635 9.78975 11.2995 9.33223V9.33223Z" fill="white"/>
<path fill-rule="evenodd" clip-rule="evenodd" d="M24.5329 32.6621C24.3239 32.2998 23.8632 32.1744 23.504 32.3818C23.1448 32.5893 23.0232 33.0514 23.232 33.4137C23.441 33.776 23.9017 33.9014 24.2609 33.694C24.6201 33.4865 24.742 33.0244 24.5329 32.6621Z" fill="white"/>
<path fill-rule="evenodd" clip-rule="evenodd" d="M25.9389 34.6661C25.6697 34.1994 25.0765 34.038 24.6137 34.3053C24.151 34.5726 23.9943 35.1674 24.2635 35.6341C24.5327 36.1008 25.1259 36.2623 25.5886 35.995C26.0513 35.7276 26.2081 35.1329 25.9389 34.6661Z" fill="white"/>
<path fill-rule="evenodd" clip-rule="evenodd" d="M26.9732 36.8843C26.7629 36.5203 26.3 36.3939 25.9391 36.6026C25.5779 36.8112 25.4556 37.2753 25.6659 37.6396C25.8758 38.0036 26.3391 38.1299 26.7 37.9213C27.0612 37.7127 27.1834 37.2486 26.9732 36.8843Z" fill="white"/>
<path fill-rule="evenodd" clip-rule="evenodd" d="M6.38409 6.53933C6.24366 6.29589 5.93375 6.21158 5.69233 6.35085C5.45091 6.49041 5.36918 6.80061 5.50961 7.04404C5.65003 7.28748 5.95965 7.37179 6.20108 7.23223C6.4425 7.09296 6.52451 6.78248 6.3838 6.53933H6.38409Z" fill="white"/>
<path fill-rule="evenodd" clip-rule="evenodd" d="M8.00334 8.42003C7.73417 7.9533 7.14091 7.79188 6.6782 8.0592C6.2155 8.32652 6.05877 8.92129 6.32794 9.38802C6.59711 9.85475 7.19037 10.0162 7.65307 9.74886C8.11578 9.48183 8.2725 8.88676 8.00334 8.42003Z" fill="white"/>
<path fill-rule="evenodd" clip-rule="evenodd" d="M9.22209 10.5323C8.95292 10.0658 8.35937 9.90412 7.89695 10.1714C7.43425 10.4388 7.27752 11.0338 7.54669 11.5003C7.81586 11.967 8.40912 12.1284 8.87182 11.8611C9.33453 11.5941 9.49125 10.999 9.22209 10.5323Z" fill="white"/>
<path fill-rule="evenodd" clip-rule="evenodd" d="M10.2694 12.7431C10.0549 12.3716 9.58266 12.243 9.21428 12.4556C8.8459 12.6685 8.72109 13.1419 8.93533 13.5134C9.14986 13.8849 9.62206 14.0135 9.99044 13.8008C10.3588 13.5879 10.4836 13.1145 10.2694 12.7431Z" fill="white"/>
<path fill-rule="evenodd" clip-rule="evenodd" d="M21.2434 31.7468C21.0269 31.3718 20.5498 31.2418 20.1779 31.4567C19.8061 31.6717 19.6799 32.1499 19.8964 32.5251C20.113 32.9004 20.59 33.0301 20.9619 32.8152C21.3337 32.6005 21.4599 32.122 21.2434 31.7468Z" fill="white"/>
<path fill-rule="evenodd" clip-rule="evenodd" d="M22.6264 33.7638C22.3572 33.2971 21.7637 33.1356 21.3012 33.4029C20.8385 33.6703 20.6818 34.265 20.951 34.7318C21.2202 35.1985 21.8134 35.3599 22.2761 35.0926C22.7388 34.8253 22.8956 34.2305 22.6264 33.7638Z" fill="white"/>
<path fill-rule="evenodd" clip-rule="evenodd" d="M23.8446 35.8756C23.5755 35.4089 22.9822 35.2474 22.5195 35.5148C22.0568 35.7821 21.9001 36.3769 22.1692 36.8436C22.4384 37.3103 23.0317 37.4717 23.4944 37.2044C23.9571 36.9374 24.1138 36.3423 23.8446 35.8756Z" fill="white"/>
<path fill-rule="evenodd" clip-rule="evenodd" d="M24.6009 38.2552C24.4803 38.0465 24.215 37.9743 24.0081 38.0937C23.8012 38.2132 23.731 38.479 23.8513 38.6877C23.9718 38.8963 24.2371 38.9685 24.444 38.8491C24.6509 38.7297 24.7211 38.4635 24.6006 38.2549L24.6009 38.2552Z" fill="white"/>
<path fill-rule="evenodd" clip-rule="evenodd" d="M5.87299 9.65082C5.61532 9.20452 5.04765 9.04971 4.60508 9.30552C4.1625 9.56133 4.01239 10.1305 4.27006 10.5771C4.52772 11.0237 5.09539 11.1782 5.53796 10.9224C5.98083 10.6666 6.13065 10.0974 5.87299 9.65082Z" fill="white"/>
<path fill-rule="evenodd" clip-rule="evenodd" d="M7.12736 11.7422C6.85819 11.2758 6.26493 11.1141 5.80222 11.3814C5.33952 11.6487 5.18279 12.2435 5.45196 12.7102C5.72113 13.177 6.31439 13.3384 6.7771 13.0711C7.2398 12.8037 7.39653 12.209 7.12736 11.7422Z" fill="white"/>
<path fill-rule="evenodd" clip-rule="evenodd" d="M8.34611 13.8541C8.07694 13.3874 7.48368 13.226 7.02097 13.4933C6.55827 13.7603 6.40154 14.3554 6.67071 14.8218C6.93988 15.2885 7.53314 15.45 7.99585 15.1829C8.45855 14.9156 8.61528 14.3208 8.34611 13.8541V13.8541Z" fill="white"/>
<path fill-rule="evenodd" clip-rule="evenodd" d="M9.56486 15.9659C9.29569 15.4992 8.70243 15.3378 8.23972 15.6051C7.77702 15.8724 7.62029 16.4672 7.88946 16.9339C8.15863 17.4007 8.75189 17.5621 9.2146 17.2948C9.6773 17.0274 9.83403 16.4327 9.56486 15.9659Z" fill="white"/>
<path fill-rule="evenodd" clip-rule="evenodd" d="M10.7307 18.1086C10.4785 17.6712 9.92235 17.5198 9.48869 17.7702C9.05532 18.0208 8.90808 18.5782 9.16057 19.0156C9.41277 19.4527 9.96893 19.6043 10.4026 19.354C10.836 19.1033 10.9832 18.5457 10.7307 18.1086Z" fill="white"/>
<path fill-rule="evenodd" clip-rule="evenodd" d="M11.8412 20.2831C11.6238 19.9061 11.1444 19.7755 10.7706 19.9913C10.397 20.2071 10.2702 20.6879 10.4876 21.0649C10.705 21.4418 11.1844 21.5722 11.5583 21.3567C11.9318 21.1408 12.0586 20.66 11.8412 20.2831V20.2831Z" fill="white"/>
<path fill-rule="evenodd" clip-rule="evenodd" d="M12.9612 22.4519C12.7754 22.1299 12.3659 22.0183 12.0464 22.2027C11.7272 22.3872 11.6188 22.7978 11.8049 23.1198C11.9906 23.4418 12.4001 23.5534 12.7194 23.369C13.0386 23.1845 13.147 22.7739 12.9612 22.4519V22.4519Z" fill="white"/>
<path fill-rule="evenodd" clip-rule="evenodd" d="M14.1174 24.5995C13.9515 24.3124 13.5863 24.2125 13.3016 24.3774C13.0166 24.542 12.9203 24.9083 13.0859 25.1955C13.2516 25.4826 13.6171 25.5822 13.9018 25.4176C14.1867 25.253 14.2831 24.8867 14.1174 24.5995Z" fill="white"/>
<path fill-rule="evenodd" clip-rule="evenodd" d="M15.4313 26.6562C15.2349 26.3158 14.8021 26.1979 14.4648 26.393C14.1272 26.588 14.013 27.0217 14.2094 27.3621C14.4058 27.7025 14.8386 27.8205 15.1759 27.6254C15.5135 27.4303 15.6277 26.9964 15.4316 26.6562H15.4313Z" fill="white"/>
<path fill-rule="evenodd" clip-rule="evenodd" d="M16.768 28.7C16.5336 28.2937 16.0171 28.153 15.6143 28.3858C15.2117 28.6186 15.0751 29.1362 15.3094 29.5425C15.5438 29.9488 16.0606 30.0895 16.4632 29.857C16.8658 29.6242 17.0024 29.1063 16.768 28.7003V28.7Z" fill="white"/>
<path fill-rule="evenodd" clip-rule="evenodd" d="M18.085 30.7553C17.819 30.294 17.2329 30.1343 16.7754 30.3984C16.3182 30.6626 16.1635 31.2505 16.4295 31.7114C16.6955 32.1727 17.2815 32.3324 17.7391 32.0683C18.1963 31.8041 18.351 31.2162 18.085 30.755V30.7553Z" fill="white"/>
<path fill-rule="evenodd" clip-rule="evenodd" d="M19.3134 32.8614C19.0442 32.3949 18.451 32.2332 17.9883 32.5005C17.5256 32.7679 17.3688 33.3626 17.638 33.8294C17.9072 34.2961 18.5004 34.4575 18.9631 34.1905C19.4258 33.9232 19.5826 33.3281 19.3134 32.8617V32.8614Z" fill="white"/>
<path fill-rule="evenodd" clip-rule="evenodd" d="M20.5321 34.9737C20.263 34.507 19.6697 34.3456 19.207 34.6129C18.7443 34.8799 18.5876 35.475 18.8567 35.9414C19.1259 36.4082 19.7192 36.5696 20.1819 36.3026C20.6446 36.0353 20.8013 35.4405 20.5321 34.9737Z" fill="white"/>
<path fill-rule="evenodd" clip-rule="evenodd" d="M21.7472 37.0877C21.4792 36.6229 20.8882 36.4618 20.4272 36.728C19.9662 36.9941 19.8104 37.5869 20.0784 38.0516C20.3464 38.5163 20.9374 38.6775 21.3983 38.4113C21.8593 38.1451 22.0155 37.5524 21.7472 37.0877Z" fill="white"/>
<path fill-rule="evenodd" clip-rule="evenodd" d="M3.44003 11.0558C3.29107 10.7979 2.96324 10.7087 2.7073 10.8565C2.45165 11.0043 2.3648 11.3327 2.51376 11.5907C2.66272 11.8487 2.99056 11.9378 3.2465 11.7903C3.50215 11.6425 3.589 11.3138 3.44003 11.0558Z" fill="white"/>
<path fill-rule="evenodd" clip-rule="evenodd" d="M5.03312 12.9518C4.76395 12.485 4.17069 12.3236 3.70799 12.5909C3.24528 12.8583 3.08855 13.453 3.35772 13.9198C3.62689 14.3865 4.22015 14.5479 4.68286 14.2806C5.14556 14.0133 5.30229 13.4185 5.03312 12.9518V12.9518Z" fill="white"/>
<path fill-rule="evenodd" clip-rule="evenodd" d="M6.25187 15.0635C5.9827 14.5971 5.38944 14.4354 4.92674 14.7027C4.46403 14.97 4.3073 15.5651 4.57647 16.0315C4.84564 16.4982 5.4389 16.6597 5.90161 16.3924C6.36431 16.125 6.52104 15.5303 6.25187 15.0635V15.0635Z" fill="white"/>
<path fill-rule="evenodd" clip-rule="evenodd" d="M7.47062 17.1759C7.20145 16.7092 6.60819 16.5477 6.14549 16.8151C5.68278 17.0824 5.52605 17.6772 5.79522 18.1439C6.06439 18.6106 6.65765 18.772 7.12036 18.5047C7.58306 18.2374 7.73979 17.6426 7.47062 17.1759Z" fill="white"/>
<path fill-rule="evenodd" clip-rule="evenodd" d="M8.68937 19.2877C8.4202 18.821 7.82694 18.6596 7.36424 18.9269C6.90153 19.1942 6.7448 19.789 7.01397 20.2557C7.28314 20.7224 7.8764 20.8839 8.33911 20.6165C8.80181 20.3492 8.95854 19.7544 8.68937 19.2877Z" fill="white"/>
<path fill-rule="evenodd" clip-rule="evenodd" d="M9.90812 21.4C9.63895 20.9335 9.04569 20.7718 8.58299 21.0391C8.12028 21.3064 7.96355 21.9015 8.23272 22.3679C8.50189 22.8347 9.09515 22.9964 9.55786 22.7291C10.0206 22.4617 10.1773 21.8667 9.90812 21.4002V21.4Z" fill="white"/>
<path fill-rule="evenodd" clip-rule="evenodd" d="M11.1264 23.5113C10.8572 23.0446 10.264 22.8832 9.80125 23.1505C9.33854 23.4178 9.18182 24.0126 9.45098 24.4793C9.72015 24.9461 10.3134 25.1075 10.7761 24.8402C11.2388 24.5728 11.3956 23.9781 11.1264 23.5113Z" fill="white"/>
<path fill-rule="evenodd" clip-rule="evenodd" d="M12.3451 25.6232C12.076 25.1564 11.4827 24.995 11.02 25.2623C10.5573 25.5296 10.4006 26.1244 10.6697 26.5911C10.9389 27.0576 11.5322 27.2193 11.9949 26.952C12.4576 26.6847 12.6143 26.0896 12.3451 25.6232Z" fill="white"/>
<path fill-rule="evenodd" clip-rule="evenodd" d="M13.5639 27.7355C13.2947 27.2687 12.7015 27.1073 12.2387 27.3746C11.776 27.6419 11.6193 28.2367 11.8885 28.7035C12.1577 29.1699 12.7509 29.3316 13.2136 29.0643C13.6763 28.797 13.8331 28.2022 13.5639 27.7358V27.7355Z" fill="white"/>
<path fill-rule="evenodd" clip-rule="evenodd" d="M14.7821 29.8472C14.513 29.3808 13.9197 29.2191 13.457 29.4864C12.9943 29.7537 12.8376 30.3488 13.1067 30.8152C13.3759 31.2819 13.9692 31.4434 14.4319 31.176C14.8946 30.9087 15.0513 30.3139 14.7821 29.8472Z" fill="white"/>
<path fill-rule="evenodd" clip-rule="evenodd" d="M16.0009 31.9591C15.7317 31.4924 15.1385 31.3309 14.6758 31.5983C14.2131 31.8656 14.0563 32.4604 14.3255 32.9271C14.5947 33.3935 15.1879 33.5552 15.6506 33.2879C16.1133 33.0206 16.2701 32.4255 16.0009 31.9591Z" fill="white"/>
<path fill-rule="evenodd" clip-rule="evenodd" d="M17.2192 34.0714C16.95 33.6047 16.3567 33.4432 15.894 33.7106C15.4313 33.9779 15.2746 34.5727 15.5438 35.0394C15.8129 35.5061 16.4062 35.6675 16.8689 35.4002C17.3316 35.1329 17.4883 34.5381 17.2192 34.0714Z" fill="white"/>
<path fill-rule="evenodd" clip-rule="evenodd" d="M18.4379 36.1832C18.1687 35.7167 17.5755 35.555 17.1128 35.8223C16.6501 36.0896 16.4933 36.6847 16.7625 37.1511C17.0317 37.6179 17.6249 37.7793 18.0876 37.512C18.5503 37.2447 18.7071 36.6499 18.4379 36.1832Z" fill="white"/>
<path fill-rule="evenodd" clip-rule="evenodd" d="M19.2762 38.5156C19.1294 38.2612 18.8057 38.1732 18.5534 38.3188C18.301 38.4644 18.2155 38.7887 18.3623 39.043C18.5091 39.2974 18.8328 39.3855 19.0851 39.2399C19.3375 39.0943 19.423 38.77 19.2762 38.5156Z" fill="white"/>
<path fill-rule="evenodd" clip-rule="evenodd" d="M2.6534 14.3266C2.47597 14.0192 2.08516 13.9128 1.78033 14.0889C1.4755 14.265 1.37227 14.6569 1.5497 14.9642C1.72713 15.2718 2.11794 15.378 2.42277 15.2022C2.72759 15.0261 2.83083 14.6342 2.6534 14.3266V14.3266Z" fill="white"/>
<path fill-rule="evenodd" clip-rule="evenodd" d="M4.15812 16.2735C3.88895 15.8068 3.29569 15.6454 2.83299 15.9127C2.37028 16.18 2.21355 16.7748 2.48272 17.2415C2.75189 17.7083 3.34515 17.8697 3.80786 17.6024C4.27056 17.3351 4.42729 16.7403 4.15812 16.2735V16.2735Z" fill="white"/>
<path fill-rule="evenodd" clip-rule="evenodd" d="M5.37687 18.3859C5.1077 17.9191 4.51444 17.7577 4.05174 18.025C3.58903 18.2923 3.4323 18.8871 3.70147 19.3538C3.97064 19.8206 4.5639 19.982 5.02661 19.7147C5.48931 19.4474 5.64604 18.8526 5.37687 18.3859V18.3859Z" fill="white"/>
<path fill-rule="evenodd" clip-rule="evenodd" d="M6.59562 20.4977C6.32645 20.0309 5.73319 19.8695 5.27049 20.1368C4.80778 20.4042 4.65105 20.9989 4.92022 21.4657C5.18939 21.9321 5.78265 22.0938 6.24536 21.8265C6.70806 21.5592 6.86479 20.9641 6.59562 20.4977Z" fill="white"/>
<path fill-rule="evenodd" clip-rule="evenodd" d="M7.81388 22.6095C7.54472 22.1428 6.95145 21.9813 6.48875 22.2486C6.02604 22.516 5.86932 23.1107 6.13848 23.5775C6.40765 24.0442 7.00091 24.2056 7.46362 23.9383C7.92632 23.671 8.08305 23.0762 7.81388 22.6095Z" fill="white"/>
<path fill-rule="evenodd" clip-rule="evenodd" d="M9.03263 24.7212C8.76346 24.2548 8.1702 24.0931 7.7075 24.3604C7.24479 24.6277 7.08807 25.2228 7.35723 25.6892C7.6264 26.156 8.21966 26.3174 8.68237 26.0501C9.14507 25.7827 9.3018 25.188 9.03263 24.7212Z" fill="white"/>
<path fill-rule="evenodd" clip-rule="evenodd" d="M10.2509 26.8331C9.98173 26.3664 9.38846 26.205 8.92576 26.4723C8.46305 26.7396 8.30633 27.3344 8.5755 27.8011C8.84466 28.2676 9.43793 28.4293 9.90063 28.1619C10.3633 27.8946 10.5201 27.2996 10.2509 26.8331Z" fill="white"/>
<path fill-rule="evenodd" clip-rule="evenodd" d="M11.4696 28.9449C11.2005 28.4782 10.6072 28.3168 10.1445 28.5841C9.68181 28.8514 9.52508 29.4462 9.79425 29.9129C10.0634 30.3794 10.6567 30.5411 11.1194 30.2738C11.5821 30.0064 11.7388 29.4117 11.4696 28.9452V28.9449Z" fill="white"/>
<path fill-rule="evenodd" clip-rule="evenodd" d="M12.6879 31.0572C12.4187 30.5907 11.8255 30.429 11.3628 30.6963C10.9001 30.9637 10.7433 31.5587 11.0125 32.0252C11.2817 32.4916 11.8749 32.6533 12.3376 32.386C12.8003 32.1187 12.9571 31.5236 12.6879 31.0572Z" fill="white"/>
<path fill-rule="evenodd" clip-rule="evenodd" d="M13.9067 33.1686C13.6375 32.7018 13.0442 32.5404 12.5815 32.8077C12.1188 33.0751 11.9621 33.6698 12.2313 34.1366C12.5004 34.6033 13.0937 34.7647 13.5564 34.4974C14.0191 34.2301 14.1758 33.6353 13.9067 33.1686Z" fill="white"/>
<path fill-rule="evenodd" clip-rule="evenodd" d="M15.1254 35.2808C14.8562 34.8144 14.263 34.6527 13.8003 34.92C13.3376 35.1873 13.1808 35.7824 13.45 36.2488C13.7192 36.7155 14.3124 36.8772 14.7751 36.6099C15.2378 36.3426 15.3946 35.7475 15.1254 35.2811V35.2808Z" fill="white"/>
<path fill-rule="evenodd" clip-rule="evenodd" d="M16.0646 37.5547C15.8851 37.2436 15.4894 37.1357 15.1812 37.3141C14.8726 37.4922 14.7682 37.8887 14.9477 38.1998C15.1271 38.5109 15.5225 38.6188 15.8311 38.4404C16.1394 38.2622 16.244 37.8657 16.0646 37.5547Z" fill="white"/>
<path fill-rule="evenodd" clip-rule="evenodd" d="M16.7346 39.9862C16.7322 39.9816 16.7265 39.9802 16.7219 39.9826C16.7177 39.9851 16.7159 39.9908 16.7184 39.9953C16.7212 39.9999 16.7269 40.0013 16.7311 39.9989C16.7357 39.9961 16.7371 39.9904 16.7343 39.9862H16.7346Z" fill="white"/>
<path fill-rule="evenodd" clip-rule="evenodd" d="M0.0173221 15.8524C0.0148535 15.8478 0.00885832 15.8464 0.00462642 15.8489C4.18599e-05 15.8517 -0.00136877 15.8573 0.00145249 15.8616C0.0039211 15.8661 0.00956364 15.8679 0.0141482 15.8651C0.0187328 15.8626 0.0201434 15.8566 0.0176748 15.8524H0.0173221Z" fill="white"/>
<path fill-rule="evenodd" clip-rule="evenodd" d="M1.69271 17.6975C1.54289 17.4378 1.21246 17.3478 0.954799 17.4965C0.697134 17.6452 0.609999 17.9765 0.759825 18.2361C0.90965 18.4958 1.24007 18.5858 1.49774 18.4369C1.7554 18.2882 1.84282 17.9572 1.69271 17.6975V17.6975Z" fill="white"/>
<path fill-rule="evenodd" clip-rule="evenodd" d="M3.28214 19.5953C3.01298 19.1286 2.41971 18.9672 1.95701 19.2345C1.49431 19.5018 1.33758 20.0966 1.60675 20.5633C1.87591 21.03 2.46918 21.1915 2.93188 20.9242C3.39459 20.6568 3.55131 20.0621 3.28214 19.5953Z" fill="white"/>
<path fill-rule="evenodd" clip-rule="evenodd" d="M4.50089 21.7071C4.23173 21.2404 3.63846 21.079 3.17576 21.3463C2.71306 21.6136 2.55633 22.2084 2.8255 22.6751C3.09466 23.1419 3.68793 23.3033 4.15063 23.036C4.61334 22.7687 4.77006 22.1739 4.50089 21.7071V21.7071Z" fill="white"/>
<path fill-rule="evenodd" clip-rule="evenodd" d="M5.71964 23.8189C5.45048 23.3525 4.85721 23.1907 4.39451 23.4581C3.93181 23.7254 3.77508 24.3204 4.04425 24.7869C4.31341 25.2536 4.90668 25.4153 5.36938 25.148C5.83209 24.8807 5.98881 24.2856 5.71964 23.8192V23.8189Z" fill="white"/>
<path fill-rule="evenodd" clip-rule="evenodd" d="M6.93839 25.9308C6.66923 25.464 6.07596 25.3026 5.61326 25.5699C5.15056 25.8373 4.99383 26.432 5.263 26.8988C5.53216 27.3655 6.12543 27.5269 6.58813 27.2596C7.05084 26.9923 7.20756 26.3975 6.93839 25.9308V25.9308Z" fill="white"/>
<path fill-rule="evenodd" clip-rule="evenodd" d="M8.15666 28.0426C7.88749 27.5759 7.29423 27.4144 6.83152 27.6818C6.36882 27.9491 6.21209 28.5439 6.48126 29.0106C6.75043 29.477 7.34369 29.6387 7.80639 29.3714C8.2691 29.1041 8.42582 28.509 8.15666 28.0426Z" fill="white"/>
<path fill-rule="evenodd" clip-rule="evenodd" d="M9.37541 30.1549C9.10624 29.6882 8.51298 29.5267 8.05027 29.7941C7.58757 30.0614 7.43084 30.6562 7.70001 31.1229C7.96918 31.5893 8.56244 31.751 9.02514 31.4837C9.48785 31.2164 9.64457 30.6216 9.37541 30.1552V30.1549Z" fill="white"/>
<path fill-rule="evenodd" clip-rule="evenodd" d="M10.5942 32.2667C10.325 31.8002 9.73173 31.6385 9.26902 31.9058C8.80632 32.1731 8.64959 32.7682 8.91876 33.2346C9.18793 33.7014 9.78119 33.8628 10.2439 33.5955C10.7066 33.3282 10.8633 32.7334 10.5942 32.2667Z" fill="white"/>
<path fill-rule="evenodd" clip-rule="evenodd" d="M11.7998 34.3864C11.5349 33.9272 10.9509 33.7681 10.4953 34.0314C10.0398 34.2944 9.88569 34.8799 10.1505 35.3392C10.4157 35.7984 10.9995 35.9576 11.455 35.6943C11.9105 35.4313 12.0646 34.8457 11.7998 34.3864Z" fill="white"/>
<path fill-rule="evenodd" clip-rule="evenodd" d="M12.7128 36.6752C12.546 36.386 12.1782 36.2858 11.8918 36.4516C11.6054 36.617 11.5079 36.9859 11.675 37.2748C11.8417 37.564 12.2096 37.6641 12.496 37.4987C12.7827 37.3332 12.8799 36.9643 12.7128 36.6752Z" fill="white"/>
<path fill-rule="evenodd" clip-rule="evenodd" d="M2.00325 23.1505C1.86398 22.9091 1.55637 22.8253 1.31696 22.9637C1.07726 23.1022 0.996118 23.41 1.13568 23.6515C1.27495 23.8929 1.58256 23.9766 1.82197 23.8382C2.06166 23.6998 2.14281 23.3919 2.00325 23.1505Z" fill="white"/>
<path fill-rule="evenodd" clip-rule="evenodd" d="M3.50422 25.0989C3.27416 24.7001 2.76688 24.5619 2.37147 24.7904C1.97606 25.0189 1.84176 25.5273 2.07211 25.9264C2.30217 26.3253 2.80945 26.4634 3.20486 26.2349C3.60027 26.0064 3.73428 25.498 3.50422 25.0989Z" fill="white"/>
<path fill-rule="evenodd" clip-rule="evenodd" d="M4.83776 27.1443C4.57061 26.6813 3.98194 26.521 3.52298 26.786C3.06401 27.0513 2.90844 27.6415 3.17559 28.1045C3.44275 28.5675 4.03112 28.7278 4.49037 28.4625C4.94934 28.1975 5.10492 27.607 4.83776 27.144V27.1443Z" fill="white"/>
<path fill-rule="evenodd" clip-rule="evenodd" d="M6.007 29.285C5.75566 28.8493 5.20179 28.6985 4.77014 28.948C4.3385 29.1975 4.19184 29.7528 4.44317 30.1882C4.69451 30.6236 5.24838 30.7746 5.68002 30.5252C6.11167 30.2757 6.25805 29.7203 6.007 29.285V29.285Z" fill="white"/>
<path fill-rule="evenodd" clip-rule="evenodd" d="M7.16667 31.4309C6.93431 31.0283 6.42243 30.889 6.02328 31.1195C5.62413 31.35 5.48868 31.8634 5.72104 32.2659C5.9534 32.6685 6.46499 32.8077 6.86414 32.5773C7.26329 32.3468 7.39874 31.8334 7.16638 31.4309H7.16667Z" fill="white"/>
<path fill-rule="evenodd" clip-rule="evenodd" d="M8.17482 33.6643C8.01004 33.3789 7.64713 33.2802 7.36415 33.4436C7.08118 33.6071 6.98513 33.9711 7.14991 34.2565C7.31469 34.542 7.67761 34.6407 7.96058 34.4772C8.24355 34.3138 8.3396 33.9498 8.17482 33.6643Z" fill="white"/>
<path fill-rule="evenodd" clip-rule="evenodd" d="M1.9253 28.829C1.92168 28.8224 1.91345 28.8204 1.90753 28.8241C1.90128 28.8277 1.89898 28.8356 1.9026 28.8418C1.90622 28.8481 1.91444 28.8504 1.92069 28.8468C1.92661 28.8431 1.92892 28.8352 1.9253 28.829V28.829Z" fill="white"/>
<path fill-rule="evenodd" clip-rule="evenodd" d="M18.3934 8.04901C18.2567 7.81219 17.9557 7.73076 17.7209 7.86629C17.4864 8.00182 17.4067 8.30339 17.5434 8.53992C17.6801 8.77645 17.9811 8.85846 18.2159 8.72293C18.4507 8.5874 18.5304 8.28555 18.3937 8.04901H18.3934Z" fill="white"/>
</svg>
