<svg width="100" height="80" viewBox="0 0 100 80" fill="none" xmlns="http://www.w3.org/2000/svg">
<path d="M36 60L50 49.5L63.75 60L58.5 43L72.5 32H55.5L50 15L44.5 32H27.5L41.25 43L36 60ZM10 80C7.25 80 4.89667 79.0217 2.94 77.065C0.98 75.105 0 72.75 0 70V50C2.75 50 5.105 49.02 7.065 47.06C9.02167 45.1033 10 42.75 10 40C10 37.25 9.02167 34.895 7.065 32.935C5.105 30.9783 2.75 30 0 30V10C0 7.25001 0.98 4.89667 2.94 2.94001C4.89667 0.980007 7.25 7.62939e-06 10 7.62939e-06H90C92.75 7.62939e-06 95.105 0.980007 97.065 2.94001C99.0217 4.89667 100 7.25001 100 10V30C97.25 30 94.895 30.9783 92.935 32.935C90.9783 34.895 90 37.25 90 40C90 42.75 90.9783 45.1033 92.935 47.06C94.895 49.02 97.25 50 100 50V70C100 72.75 99.0217 75.105 97.065 77.065C95.105 79.0217 92.75 80 90 80H10ZM10 70H90V57.25C86.9167 55.4167 84.48 52.98 82.69 49.94C80.8967 46.8967 80 43.5833 80 40C80 36.4167 80.8967 33.1033 82.69 30.06C84.48 27.02 86.9167 24.5833 90 22.75V10H10V22.75C13.0833 24.5833 15.5217 27.02 17.315 30.06C19.105 33.1033 20 36.4167 20 40C20 43.5833 19.105 46.8967 17.315 49.94C15.5217 52.98 13.0833 55.4167 10 57.25V70Z" fill="#BBFD00"/>
</svg>
