<svg width="100" height="100" viewBox="0 0 100 100" fill="none" xmlns="http://www.w3.org/2000/svg">
<path d="M45.5 85H54.25V78.75C58.4167 78 62 76.375 65 73.875C68 71.375 69.5 67.6667 69.5 62.75C69.5 59.25 68.5 56.0417 66.5 53.125C64.5 50.2083 60.5 47.6667 54.5 45.5C49.5 43.8333 46.0417 42.375 44.125 41.125C42.2083 39.875 41.25 38.1667 41.25 36C41.25 33.8333 42.0217 32.125 43.565 30.875C45.105 29.625 47.3333 29 50.25 29C52.9167 29 55 29.6467 56.5 30.94C58 32.23 59.0833 33.8333 59.75 35.75L67.75 32.5C66.8333 29.5833 65.1467 27.0417 62.69 24.875C60.23 22.7083 57.5 21.5 54.5 21.25V15H45.75V21.25C41.5833 22.1667 38.3333 24 36 26.75C33.6667 29.5 32.5 32.5833 32.5 36C32.5 39.9167 33.6467 43.0833 35.94 45.5C38.23 47.9167 41.8333 50 46.75 51.75C52 53.6667 55.6467 55.375 57.69 56.875C59.73 58.375 60.75 60.3333 60.75 62.75C60.75 65.5 59.77 67.52 57.81 68.81C55.8533 70.1033 53.5 70.75 50.75 70.75C48 70.75 45.5633 69.895 43.44 68.185C41.3133 66.4783 39.75 63.9167 38.75 60.5L30.5 63.75C31.6667 67.75 33.48 70.98 35.94 73.44C38.3967 75.8967 41.5833 77.5833 45.5 78.5V85ZM50 100C43.0833 100 36.5833 98.6867 30.5 96.06C24.4167 93.4367 19.125 89.875 14.625 85.375C10.125 80.875 6.56333 75.5833 3.94 69.5C1.31333 63.4167 0 56.9167 0 50C0 43.0833 1.31333 36.5833 3.94 30.5C6.56333 24.4167 10.125 19.125 14.625 14.625C19.125 10.125 24.4167 6.56167 30.5 3.935C36.5833 1.31167 43.0833 0 50 0C56.9167 0 63.4167 1.31167 69.5 3.935C75.5833 6.56167 80.875 10.125 85.375 14.625C89.875 19.125 93.4367 24.4167 96.06 30.5C98.6867 36.5833 100 43.0833 100 50C100 56.9167 98.6867 63.4167 96.06 69.5C93.4367 75.5833 89.875 80.875 85.375 85.375C80.875 89.875 75.5833 93.4367 69.5 96.06C63.4167 98.6867 56.9167 100 50 100ZM50 90C61.1667 90 70.625 86.125 78.375 78.375C86.125 70.625 90 61.1667 90 50C90 38.8333 86.125 29.375 78.375 21.625C70.625 13.875 61.1667 10 50 10C38.8333 10 29.375 13.875 21.625 21.625C13.875 29.375 10 38.8333 10 50C10 61.1667 13.875 70.625 21.625 78.375C29.375 86.125 38.8333 90 50 90Z" fill="#BBFD00"/>
</svg>
