<svg width="100" height="80" viewBox="0 0 100 80" fill="none" xmlns="http://www.w3.org/2000/svg">
<path d="M25.7071 79.2803C25.3176 79.6768 24.6796 79.6796 24.2866 79.2866L0.707106 55.7071C0.316582 55.3166 0.316583 54.6834 0.707107 54.2929L24.2866 30.7134C24.6796 30.3204 25.3176 30.3232 25.7071 30.7197L31.3054 36.4179C31.69 36.8095 31.6872 37.4378 31.2991 37.8259L20.8321 48.2929C20.2021 48.9229 20.6483 50 21.5392 50H54C54.5523 50 55 50.4477 55 51V59C55 59.5523 54.5523 60 54 60H21.5392C20.6483 60 20.2021 61.0771 20.8321 61.7071L31.2991 72.1741C31.6872 72.5622 31.69 73.1906 31.3054 73.5821L25.7071 79.2803ZM75.7134 49.2866C75.3204 49.6796 74.6824 49.6768 74.2929 49.2803L68.6946 43.5821C68.31 43.1905 68.3128 42.5622 68.7009 42.1741L79.1679 31.7071C79.7979 31.0771 79.3517 30 78.4608 30H46C45.4477 30 45 29.5523 45 29V21C45 20.4477 45.4477 20 46 20H78.4608C79.3517 20 79.7979 18.9229 79.1679 18.2929L68.7009 7.82588C68.3128 7.4378 68.31 6.80945 68.6946 6.41795L74.2929 0.719677C74.6824 0.323245 75.3204 0.320422 75.7134 0.713392L99.2929 24.2929C99.6834 24.6834 99.6834 25.3166 99.2929 25.7071L75.7134 49.2866Z" fill="#BBFD00"/>
</svg>
