<svg width="60" height="60" viewBox="0 0 60 60" fill="none" xmlns="http://www.w3.org/2000/svg">
<path d="M30 0C13.44 0 0 13.44 0 30C0 46.56 13.44 60 30 60C46.56 60 60 46.56 60 30C60 13.44 46.56 0 30 0ZM30 54C16.77 54 6 43.23 6 30C6 16.77 16.77 6 30 6C43.23 6 54 16.77 54 30C54 43.23 43.23 54 30 54ZM40.7071 15.2071C40.0771 14.5771 39 15.0233 39 15.9142V20C39 20.5523 38.5523 21 38 21H28C27.4477 21 27 21.4477 27 22V26C27 26.5523 27.4477 27 28 27H38C38.5523 27 39 27.4477 39 28V32.0858C39 32.9767 40.0771 33.4229 40.7071 32.7929L48.7929 24.7071C49.1834 24.3166 49.1834 23.6834 48.7929 23.2929L40.7071 15.2071ZM21 27.9142C21 27.0233 19.9229 26.5771 19.2929 27.2071L11.2071 35.2929C10.8166 35.6834 10.8166 36.3166 11.2071 36.7071L19.2929 44.7929C19.9229 45.4229 21 44.9767 21 44.0858V40C21 39.4477 21.4477 39 22 39H32C32.5523 39 33 38.5523 33 38V34C33 33.4477 32.5523 33 32 33H22C21.4477 33 21 32.5523 21 32V27.9142Z" fill="#BBFD00"/>
</svg>
