<svg width="20" height="20" viewBox="0 0 20 20" fill="none" xmlns="http://www.w3.org/2000/svg">
<path d="M10 0C4.479 0 0 4.477 0 10C0 15.521 4.479 20 10 20C15.521 20 20 15.521 20 10C20 4.477 15.521 0 10 0ZM15.859 11.33C15.871 11.476 15.871 11.623 15.859 11.769C15.859 14.009 13.25 15.831 10.029 15.831C6.808 15.831 4.199 14.011 4.199 11.769C4.187 11.6229 4.187 11.4761 4.199 11.33C3.98844 11.2334 3.80388 11.0881 3.66059 10.9061C3.5173 10.724 3.41937 10.5105 3.37492 10.2831C3.33046 10.0558 3.34075 9.82112 3.40493 9.59852C3.4691 9.37592 3.58533 9.17179 3.744 9.003C3.87522 8.86324 4.03272 8.75072 4.20747 8.6719C4.38223 8.59308 4.57081 8.54949 4.76243 8.54364C4.95405 8.53779 5.14495 8.56979 5.32419 8.6378C5.50343 8.70581 5.6675 8.8085 5.807 8.94C6.95912 8.15898 8.31427 7.73147 9.706 7.71L10.449 4.24V4.236C10.4674 4.15579 10.5166 4.08605 10.5861 4.04188C10.6555 3.99771 10.7396 3.98267 10.82 4L13.269 4.49C13.3891 4.28438 13.5785 4.12828 13.8032 4.04974C14.028 3.9712 14.2734 3.97535 14.4954 4.06145C14.7174 4.14755 14.9014 4.30997 15.0145 4.51953C15.1275 4.7291 15.1621 4.97209 15.1121 5.20489C15.0621 5.43768 14.9308 5.64503 14.7417 5.78972C14.5526 5.9344 14.3181 6.00693 14.0803 5.9943C13.8426 5.98167 13.6171 5.88469 13.4444 5.72079C13.2717 5.55688 13.163 5.33678 13.138 5.1L11 4.65L10.351 7.77C11.7262 7.79967 13.0633 8.22687 14.201 9C14.4043 8.80528 14.6595 8.67346 14.9359 8.62042C15.2123 8.56738 15.4982 8.59538 15.7591 8.70105C16.02 8.80672 16.2448 8.98554 16.4064 9.216C16.568 9.44646 16.6595 9.71872 16.67 10C16.68 10.563 16.363 11.08 15.859 11.33Z" fill="#BBFD00"/>
</svg>
